<?xml version="1.0" encoding="UTF-8"?>
<svg version="1.1" xmlns="http://www.w3.org/2000/svg" width="512" height="512">
<path d="M0 0 C58.08 0 116.16 0 176 0 C176 15.84 176 31.68 176 48 C165.44 48 154.88 48 144 48 C144 58.56 144 69.12 144 80 C149.48693481 79.92144775 149.48693481 79.92144775 155.0847168 79.84130859 C167.20225406 79.67523719 179.31971286 79.56449468 191.43806744 79.48187828 C198.78197734 79.43047283 206.12480363 79.36048697 213.46801758 79.24560547 C219.87395164 79.14543573 226.27910052 79.08130263 232.68579608 79.05911505 C236.07365755 79.04615853 239.45927439 79.01606815 242.84641075 78.94269943 C267.31961986 78.47120802 267.31961986 78.47120802 274.9777832 84.84423828 C276.69386606 86.52087769 278.37441624 88.23547811 280 90 C281.48609019 91.18735358 282.99192873 92.35126953 284.53125 93.46875 C285.51834961 94.22285156 285.51834961 94.22285156 286.52539062 94.9921875 C287.50282227 95.73855469 287.50282227 95.73855469 288.5 96.5 C294.53596247 101.11223321 300.56382988 105.73452864 306.578125 110.375 C309.22325906 112.41070028 311.88329618 114.42600065 314.546875 116.4375 C315.32611328 117.02789062 316.10535156 117.61828125 316.90820312 118.2265625 C318.44613756 119.39123678 319.98643454 120.55279919 321.52929688 121.7109375 C322.22603516 122.23945313 322.92277344 122.76796875 323.640625 123.3125 C324.26485352 123.78300781 324.88908203 124.25351563 325.53222656 124.73828125 C327 126 327 126 328 128 C317.44 128 306.88 128 296 128 C296 244.16 296 360.32 296 480 C158.72 480 21.44 480 -120 480 C-120 363.84 -120 247.68 -120 128 C-130.56 128 -141.12 128 -152 128 C-146.37414966 122.37414966 -146.37414966 122.37414966 -143.90625 120.45703125 C-143.35799561 120.0285791 -142.80974121 119.60012695 -142.24487305 119.15869141 C-141.38116089 118.49232666 -141.38116089 118.49232666 -140.5 117.8125 C-139.88616455 117.33474121 -139.2723291 116.85698242 -138.63989258 116.36474609 C-136.76294412 114.90588796 -134.88206412 113.45225017 -133 112 C-132.45778809 111.58057129 -131.91557617 111.16114258 -131.35693359 110.72900391 C-128.17859419 108.27107487 -124.99284943 105.82297661 -121.80273438 103.38037109 C-119.8104285 101.85484327 -117.81932065 100.32775786 -115.828125 98.80078125 C-114.36466633 97.67957916 -112.90112546 96.55848435 -111.4375 95.4375 C-110.44786255 94.67880615 -110.44786255 94.67880615 -109.43823242 93.90478516 C-108.09712391 92.87874159 -106.74209214 91.87065579 -105.37414551 90.88067627 C-102.93931051 89.05494603 -102.93931051 89.05494603 -100.92915344 86.73294067 C-92.21658241 78.24310143 -82.52107664 78.9061749 -70.887146 78.98033142 C-68.90673676 79.01460381 -66.92632549 79.04893167 -64.94599438 79.08745456 C-61.53091192 79.14421041 -58.11573768 79.14904131 -54.70025635 79.15968323 C-48.25074017 79.1875141 -41.8026181 79.26116909 -35.35371232 79.35182863 C-28.00431606 79.45287601 -20.65484867 79.50202127 -13.30492926 79.54708755 C1.7976151 79.6408377 16.89835166 79.8056993 32 80 C32 69.44 32 58.88 32 48 C21.44 48 10.88 48 0 48 C0 32.16 0 16.32 0 0 Z M48 48 C48 58.56 48 69.12 48 80 C74.4 80 100.8 80 128 80 C128 69.44 128 58.88 128 48 C101.6 48 75.2 48 48 48 Z " fill="#5C677C" transform="translate(168,16)"/>
<path d="M0 0 C58.08 0 116.16 0 176 0 C176 15.84 176 31.68 176 48 C165.44 48 154.88 48 144 48 C144 58.56 144 69.12 144 80 C149.48693481 79.92144775 149.48693481 79.92144775 155.0847168 79.84130859 C167.20225406 79.67523719 179.31971286 79.56449468 191.43806744 79.48187828 C198.78197734 79.43047283 206.12480363 79.36048697 213.46801758 79.24560547 C219.87395164 79.14543573 226.27910052 79.08130263 232.68579608 79.05911505 C236.07365755 79.04615853 239.45927439 79.01606815 242.84641075 78.94269943 C267.31961986 78.47120802 267.31961986 78.47120802 274.9777832 84.84423828 C276.69386606 86.52087769 278.37441624 88.23547811 280 90 C281.48609019 91.18735358 282.99192873 92.35126953 284.53125 93.46875 C285.51834961 94.22285156 285.51834961 94.22285156 286.52539062 94.9921875 C287.50282227 95.73855469 287.50282227 95.73855469 288.5 96.5 C294.53596247 101.11223321 300.56382988 105.73452864 306.578125 110.375 C309.22325906 112.41070028 311.88329618 114.42600065 314.546875 116.4375 C315.32611328 117.02789062 316.10535156 117.61828125 316.90820312 118.2265625 C318.44613756 119.39123678 319.98643454 120.55279919 321.52929688 121.7109375 C322.22603516 122.23945313 322.92277344 122.76796875 323.640625 123.3125 C324.26485352 123.78300781 324.88908203 124.25351563 325.53222656 124.73828125 C327 126 327 126 328 128 C169.6 128 11.2 128 -152 128 C-146.37414966 122.37414966 -146.37414966 122.37414966 -143.90625 120.45703125 C-143.35799561 120.0285791 -142.80974121 119.60012695 -142.24487305 119.15869141 C-141.38116089 118.49232666 -141.38116089 118.49232666 -140.5 117.8125 C-139.88616455 117.33474121 -139.2723291 116.85698242 -138.63989258 116.36474609 C-136.76294412 114.90588796 -134.88206412 113.45225017 -133 112 C-132.45778809 111.58057129 -131.91557617 111.16114258 -131.35693359 110.72900391 C-128.17859419 108.27107487 -124.99284943 105.82297661 -121.80273438 103.38037109 C-119.8104285 101.85484327 -117.81932065 100.32775786 -115.828125 98.80078125 C-114.36466633 97.67957916 -112.90112546 96.55848435 -111.4375 95.4375 C-110.44786255 94.67880615 -110.44786255 94.67880615 -109.43823242 93.90478516 C-108.09712391 92.87874159 -106.74209214 91.87065579 -105.37414551 90.88067627 C-102.93931051 89.05494603 -102.93931051 89.05494603 -100.92915344 86.73294067 C-92.21658241 78.24310143 -82.52107664 78.9061749 -70.887146 78.98033142 C-68.90673676 79.01460381 -66.92632549 79.04893167 -64.94599438 79.08745456 C-61.53091192 79.14421041 -58.11573768 79.14904131 -54.70025635 79.15968323 C-48.25074017 79.1875141 -41.8026181 79.26116909 -35.35371232 79.35182863 C-28.00431606 79.45287601 -20.65484867 79.50202127 -13.30492926 79.54708755 C1.7976151 79.6408377 16.89835166 79.8056993 32 80 C32 69.44 32 58.88 32 48 C21.44 48 10.88 48 0 48 C0 32.16 0 16.32 0 0 Z M48 48 C48 58.56 48 69.12 48 80 C74.4 80 100.8 80 128 80 C128 69.44 128 58.88 128 48 C101.6 48 75.2 48 48 48 Z " fill="#2C3041" transform="translate(168,16)"/>
<path d="M0 0 C36.96 0 73.92 0 112 0 C112 63.36 112 126.72 112 192 C75.04 192 38.08 192 0 192 C0 128.64 0 65.28 0 0 Z " fill="#979DAC" transform="translate(160,272)"/>
<path d="M0 0 C137.28 0 274.56 0 416 0 C416 38.7109375 416 38.7109375 411.5 43.64453125 C406.09279135 47.85483174 401.72106323 48.82862423 395 48 C390.62874175 45.77313259 387.71986044 43.07979065 385 39 C385 38.01 385 37.02 385 36 C384.34 36 383.68 36 383 36 C382.979375 36.70125 382.95875 37.4025 382.9375 38.125 C381.56130245 42.34533914 378.59407618 44.52024438 375 47 C370.92952653 48.35682449 367.25608283 48.52472254 363 48 C358.62874175 45.77313259 355.71986044 43.07979065 353 39 C353 38.01 353 37.02 353 36 C352.34 36 351.68 36 351 36 C350.979375 36.70125 350.95875 37.4025 350.9375 38.125 C349.56130245 42.34533914 346.59407618 44.52024438 343 47 C338.92952653 48.35682449 335.25608283 48.52472254 331 48 C326.62874175 45.77313259 323.71986044 43.07979065 321 39 C321 38.01 321 37.02 321 36 C320.34 36 319.68 36 319 36 C318.979375 36.70125 318.95875 37.4025 318.9375 38.125 C317.56130245 42.34533914 314.59407618 44.52024438 311 47 C306.92952653 48.35682449 303.25608283 48.52472254 299 48 C294.62874175 45.77313259 291.71986044 43.07979065 289 39 C289 38.01 289 37.02 289 36 C288.34 36 287.68 36 287 36 C286.979375 36.70125 286.95875 37.4025 286.9375 38.125 C285.56130245 42.34533914 282.59407618 44.52024438 279 47 C274.92952653 48.35682449 271.25608283 48.52472254 267 48 C262.62874175 45.77313259 259.71986044 43.07979065 257 39 C257 38.01 257 37.02 257 36 C256.34 36 255.68 36 255 36 C254.979375 36.70125 254.95875 37.4025 254.9375 38.125 C253.56130245 42.34533914 250.59407618 44.52024438 247 47 C242.92952653 48.35682449 239.25608283 48.52472254 235 48 C230.62874175 45.77313259 227.71986044 43.07979065 225 39 C225 38.01 225 37.02 225 36 C224.34 36 223.68 36 223 36 C222.979375 36.70125 222.95875 37.4025 222.9375 38.125 C221.56130245 42.34533914 218.59407618 44.52024438 215 47 C210.92952653 48.35682449 207.25608283 48.52472254 203 48 C198.62874175 45.77313259 195.71986044 43.07979065 193 39 C193 38.01 193 37.02 193 36 C192.34 36 191.68 36 191 36 C190.979375 36.70125 190.95875 37.4025 190.9375 38.125 C189.56130245 42.34533914 186.59407618 44.52024438 183 47 C178.92952653 48.35682449 175.25608283 48.52472254 171 48 C166.62874175 45.77313259 163.71986044 43.07979065 161 39 C161 38.01 161 37.02 161 36 C160.34 36 159.68 36 159 36 C158.979375 36.70125 158.95875 37.4025 158.9375 38.125 C157.56130245 42.34533914 154.59407618 44.52024438 151 47 C146.92952653 48.35682449 143.25608283 48.52472254 139 48 C134.62874175 45.77313259 131.71986044 43.07979065 129 39 C129 38.01 129 37.02 129 36 C128.34 36 127.68 36 127 36 C126.979375 36.70125 126.95875 37.4025 126.9375 38.125 C125.56130245 42.34533914 122.59407618 44.52024438 119 47 C114.92952653 48.35682449 111.25608283 48.52472254 107 48 C102.62874175 45.77313259 99.71986044 43.07979065 97 39 C97 38.01 97 37.02 97 36 C96.34 36 95.68 36 95 36 C94.979375 36.70125 94.95875 37.4025 94.9375 38.125 C93.56130245 42.34533914 90.59407618 44.52024438 87 47 C82.92952653 48.35682449 79.25608283 48.52472254 75 48 C70.62874175 45.77313259 67.71986044 43.07979065 65 39 C65 38.01 65 37.02 65 36 C64.34 36 63.68 36 63 36 C62.979375 36.70125 62.95875 37.4025 62.9375 38.125 C61.56130245 42.34533914 58.59407618 44.52024438 55 47 C50.92952653 48.35682449 47.25608283 48.52472254 43 48 C38.62874175 45.77313259 35.71986044 43.07979065 33 39 C33 38.01 33 37.02 33 36 C32.34 36 31.68 36 31 36 C30.979375 36.70125 30.95875 37.4025 30.9375 38.125 C29.56130245 42.34533914 26.59407618 44.52024438 23 47 C18.92952653 48.35682449 15.25608283 48.52472254 11 48 C5.6964772 45.29820537 1.90167702 41.70503105 0 36 C0 24.12 0 12.24 0 0 Z " fill="#E8FE70" transform="translate(48,144)"/>
<path d="M0 0 C58.08 0 116.16 0 176 0 C176 15.84 176 31.68 176 48 C117.92 48 59.84 48 0 48 C0 32.16 0 16.32 0 0 Z " fill="#7CCDF4" transform="translate(168,16)"/>
<path d="M0 0 C4.06242695 0.585804 7.72265904 1.47912566 11.5769043 2.88256836 C13.18730843 3.46469337 13.18730843 3.46469337 14.83024597 4.05857849 C16.5597625 4.69280479 16.5597625 4.69280479 18.32421875 5.33984375 C19.53906448 5.78082901 20.75391022 6.22181427 22.00556946 6.67616272 C25.24701648 7.85299031 28.48611223 9.03616429 31.72479248 10.22058105 C34.91593826 11.38621212 38.10946198 12.5452887 41.30273438 13.70507812 C46.98047698 15.7678709 52.6526072 17.84563781 58.32305717 19.92838097 C62.16570287 21.33681051 66.01570851 22.72266311 69.87241268 24.09211254 C71.77684388 24.76957543 73.67923648 25.45245697 75.58100891 26.13734436 C77.94310685 26.98684875 80.30869277 27.82673571 82.67814636 28.65550232 C84.25635918 29.22737022 84.25635918 29.22737022 85.86645508 29.81079102 C86.78896561 30.13837906 87.71147614 30.4659671 88.66194153 30.80348206 C91.44259736 32.22650233 92.40175615 33.32398376 94 36 C94.37752342 38.80521297 94.37752342 38.80521297 94.38095093 42.10398865 C94.3894104 43.35597046 94.39786987 44.60795227 94.40658569 45.89787292 C94.40075292 47.28274666 94.39460843 48.66761912 94.38818359 50.05249023 C94.39224932 51.51293327 94.39759121 52.97337324 94.40411377 54.43380737 C94.4177944 58.39873247 94.4124854 62.36342348 94.40297651 66.32835269 C94.39538232 70.47802789 94.40242499 74.62768302 94.40713501 78.77735901 C94.41259388 85.74719847 94.40539817 92.71694259 94.39111328 99.68676758 C94.37479288 107.74273337 94.38007025 115.79847132 94.3965925 123.85443157 C94.41021129 130.77175039 94.41212492 137.68900065 94.40427649 144.60632855 C94.3996013 148.73739643 94.39897072 152.86835727 94.40888596 156.99941826 C94.41755887 160.88432718 94.41152796 164.76894277 94.39420319 168.65382004 C94.39023978 170.07883149 94.39136993 171.50386767 94.39799118 172.92886925 C94.4062018 174.87557971 94.39407485 176.82234417 94.38095093 178.76902771 C94.37981985 179.85800071 94.37868877 180.94697371 94.37752342 182.06894588 C93.94409588 185.43403399 93.05492091 187.31592207 91 190 C88.00632982 190.99789006 85.98611991 191.137985 82.85766602 191.16113281 C81.80970352 191.17074036 80.76174103 191.1803479 79.68202209 191.19024658 C78.55074387 191.19449646 77.41946564 191.19874634 76.25390625 191.203125 C75.09124741 191.20882507 73.92858856 191.21452515 72.73069763 191.22039795 C70.27026276 191.2298485 67.80981524 191.23638215 65.34936523 191.24023438 C61.58099403 191.24995231 57.81316532 191.28098101 54.04492188 191.3125 C51.65625324 191.3190288 49.26758071 191.32427975 46.87890625 191.328125 C45.74965225 191.3404718 44.62039825 191.3528186 43.45692444 191.36553955 C42.40580978 191.36253845 41.35469513 191.35953735 40.27172852 191.35644531 C38.88631615 191.36191376 38.88631615 191.36191376 37.47291565 191.36749268 C34.50107284 190.92585591 33.15358166 190.06933457 31 188 C30.08138216 185.24414648 29.87795678 183.6403931 29.88647461 180.80395508 C29.88659546 179.95160278 29.88671631 179.09925049 29.88684082 178.22106934 C29.89195679 177.32956177 29.89707275 176.4380542 29.90234375 175.51953125 C29.90335083 174.69690796 29.90435791 173.87428467 29.90539551 173.0267334 C29.91062551 169.95530808 29.92458678 166.88390263 29.9375 163.8125 C29.9684375 153.5103125 29.9684375 153.5103125 30 143 C11.52 143 -6.96 143 -26 143 C-26 137.72 -26 132.44 -26 127 C-17.48101788 126.93217094 -8.96224639 126.87715342 -0.4430666 126.84456348 C3.51291134 126.82892043 7.46869463 126.8077073 11.42456055 126.77368164 C15.24359355 126.74103922 19.06243956 126.72313675 22.88160133 126.71536827 C24.33723709 126.70983349 25.79286285 126.69902528 27.24841881 126.68280983 C29.29042903 126.66096979 31.33167071 126.65803569 33.3737793 126.65942383 C35.11584908 126.64943108 35.11584908 126.64943108 36.89311218 126.63923645 C40.35260085 127.04094307 42.22620054 127.92940732 45 130 C46.15410254 132.30820508 46.1210297 133.60784276 46.11352539 136.17431641 C46.11341209 137.46542831 46.11341209 137.46542831 46.11329651 138.78262329 C46.10813522 139.71287323 46.10297394 140.64312317 46.09765625 141.6015625 C46.0962413 142.55316254 46.09482635 143.50476257 46.09336853 144.48519897 C46.08776012 147.53183097 46.07520619 150.57839013 46.0625 153.625 C46.05748608 155.68749894 46.05292299 157.74999903 46.04882812 159.8125 C46.03863781 164.87505081 46.01906402 169.93744363 46 175 C56.56 175 67.12 175 78 175 C78 145.96 78 116.92 78 87 C69.09 87 60.18 87 51 87 C47 84 47 84 46 81 C45.91294571 79.41966808 45.88232048 77.83589622 45.88647461 76.25317383 C45.88658791 74.81201958 45.88658791 74.81201958 45.88670349 73.3417511 C45.89186478 72.30729355 45.89702606 71.272836 45.90234375 70.20703125 C45.9037587 69.14586594 45.90517365 68.08470062 45.90663147 66.99137878 C45.91223394 63.59839065 45.92478686 60.20546823 45.9375 56.8125 C45.94251468 54.51367283 45.94707764 52.21484462 45.95117188 49.91601562 C45.96220417 44.27732128 45.9789447 38.63866534 46 33 C45.3850769 32.82195831 44.77015381 32.64391663 44.13659668 32.46047974 C38.26688282 30.73433611 32.51467852 28.81206476 26.78125 26.6796875 C25.95669312 26.37555939 25.13213623 26.07143127 24.28259277 25.75808716 C22.56124101 25.12253846 20.84041886 24.48555357 19.12011719 23.84716797 C16.47972114 22.86747574 13.83766618 21.89236719 11.1953125 20.91796875 C9.51552781 20.29713789 7.83583682 19.67605346 6.15625 19.0546875 C5.3667395 18.76302704 4.577229 18.47136658 3.76379395 18.17086792 C-1.76631308 16.11684346 -1.76631308 16.11684346 -4 15 C-3.43179252 9.54520815 -2.05362055 5.08940744 0 0 Z " fill="#2D3142" transform="translate(298,281)"/>
<path d="M0 0 C52.8 0 105.6 0 160 0 C160 10.56 160 21.12 160 32 C107.2 32 54.4 32 0 32 C0 21.44 0 10.88 0 0 Z " fill="#FF6B6B" transform="translate(136,464)"/>
<path d="M0 0 C15.84 0 31.68 0 48 0 C48 10.56 48 21.12 48 32 C32.16 32 16.32 32 0 32 C0 21.44 0 10.88 0 0 Z " fill="#F9C74F" transform="translate(192,304)"/>
<path d="M0 0 C10.56 0 21.12 0 32 0 C32.0690497 5.0176117 32.12872743 10.03356045 32.16479492 15.05126953 C32.17983738 16.75640463 32.20027653 18.46150132 32.22631836 20.16650391 C32.26290284 22.62412012 32.27977173 25.08122269 32.29296875 27.5390625 C32.30845261 28.29555084 32.32393646 29.05203918 32.33988953 29.83145142 C32.34160672 35.29006309 31.30676846 39.47096478 27.5 43.64453125 C22.09279135 47.85483174 17.72106323 48.82862423 11 48 C5.6964772 45.29820537 1.90167702 41.70503105 0 36 C-0.08507079 33.2684044 -0.11591565 30.56308557 -0.09765625 27.83203125 C-0.0962413 27.03721848 -0.09482635 26.2424057 -0.09336853 25.42350769 C-0.08777378 22.88646675 -0.07522228 20.34951425 -0.0625 17.8125 C-0.05748432 16.09179815 -0.05292153 14.37109492 -0.04882812 12.65039062 C-0.03865722 8.43353231 -0.01908084 4.21686509 0 0 Z " fill="#FE6A6B" transform="translate(432,144)"/>
<path d="M0 0 C10.56 0 21.12 0 32 0 C32.0690497 5.0176117 32.12872743 10.03356045 32.16479492 15.05126953 C32.17983738 16.75640463 32.20027653 18.46150132 32.22631836 20.16650391 C32.26290284 22.62412012 32.27977173 25.08122269 32.29296875 27.5390625 C32.30845261 28.29555084 32.32393646 29.05203918 32.33988953 29.83145142 C32.34160672 35.29006309 31.30676846 39.47096478 27.5 43.64453125 C22.09279135 47.85483174 17.72106323 48.82862423 11 48 C5.6964772 45.29820537 1.90167702 41.70503105 0 36 C-0.08507079 33.2684044 -0.11591565 30.56308557 -0.09765625 27.83203125 C-0.0962413 27.03721848 -0.09482635 26.2424057 -0.09336853 25.42350769 C-0.08777378 22.88646675 -0.07522228 20.34951425 -0.0625 17.8125 C-0.05748432 16.09179815 -0.05292153 14.37109492 -0.04882812 12.65039062 C-0.03865722 8.43353231 -0.01908084 4.21686509 0 0 Z " fill="#E8FE70" transform="translate(400,144)"/>
<path d="M0 0 C10.56 0 21.12 0 32 0 C32.0690497 5.0176117 32.12872743 10.03356045 32.16479492 15.05126953 C32.17983738 16.75640463 32.20027653 18.46150132 32.22631836 20.16650391 C32.26290284 22.62412012 32.27977173 25.08122269 32.29296875 27.5390625 C32.30845261 28.29555084 32.32393646 29.05203918 32.33988953 29.83145142 C32.34160672 35.29006309 31.30676846 39.47096478 27.5 43.64453125 C22.09279135 47.85483174 17.72106323 48.82862423 11 48 C5.6964772 45.29820537 1.90167702 41.70503105 0 36 C-0.08507079 33.2684044 -0.11591565 30.56308557 -0.09765625 27.83203125 C-0.0962413 27.03721848 -0.09482635 26.2424057 -0.09336853 25.42350769 C-0.08777378 22.88646675 -0.07522228 20.34951425 -0.0625 17.8125 C-0.05748432 16.09179815 -0.05292153 14.37109492 -0.04882812 12.65039062 C-0.03865722 8.43353231 -0.01908084 4.21686509 0 0 Z " fill="#FE6A6B" transform="translate(368,144)"/>
<path d="M0 0 C10.56 0 21.12 0 32 0 C32.0690497 5.0176117 32.12872743 10.03356045 32.16479492 15.05126953 C32.17983738 16.75640463 32.20027653 18.46150132 32.22631836 20.16650391 C32.26290284 22.62412012 32.27977173 25.08122269 32.29296875 27.5390625 C32.30845261 28.29555084 32.32393646 29.05203918 32.33988953 29.83145142 C32.34160672 35.29006309 31.30676846 39.47096478 27.5 43.64453125 C22.09279135 47.85483174 17.72106323 48.82862423 11 48 C5.6964772 45.29820537 1.90167702 41.70503105 0 36 C-0.08507079 33.2684044 -0.11591565 30.56308557 -0.09765625 27.83203125 C-0.0962413 27.03721848 -0.09482635 26.2424057 -0.09336853 25.42350769 C-0.08777378 22.88646675 -0.07522228 20.34951425 -0.0625 17.8125 C-0.05748432 16.09179815 -0.05292153 14.37109492 -0.04882812 12.65039062 C-0.03865722 8.43353231 -0.01908084 4.21686509 0 0 Z " fill="#E8FE70" transform="translate(336,144)"/>
<path d="M0 0 C10.56 0 21.12 0 32 0 C32.0690497 5.0176117 32.12872743 10.03356045 32.16479492 15.05126953 C32.17983738 16.75640463 32.20027653 18.46150132 32.22631836 20.16650391 C32.26290284 22.62412012 32.27977173 25.08122269 32.29296875 27.5390625 C32.30845261 28.29555084 32.32393646 29.05203918 32.33988953 29.83145142 C32.34160672 35.29006309 31.30676846 39.47096478 27.5 43.64453125 C22.09279135 47.85483174 17.72106323 48.82862423 11 48 C5.6964772 45.29820537 1.90167702 41.70503105 0 36 C-0.08507079 33.2684044 -0.11591565 30.56308557 -0.09765625 27.83203125 C-0.0962413 27.03721848 -0.09482635 26.2424057 -0.09336853 25.42350769 C-0.08777378 22.88646675 -0.07522228 20.34951425 -0.0625 17.8125 C-0.05748432 16.09179815 -0.05292153 14.37109492 -0.04882812 12.65039062 C-0.03865722 8.43353231 -0.01908084 4.21686509 0 0 Z " fill="#FE6A6B" transform="translate(304,144)"/>
<path d="M0 0 C10.56 0 21.12 0 32 0 C32.0690497 5.0176117 32.12872743 10.03356045 32.16479492 15.05126953 C32.17983738 16.75640463 32.20027653 18.46150132 32.22631836 20.16650391 C32.26290284 22.62412012 32.27977173 25.08122269 32.29296875 27.5390625 C32.30845261 28.29555084 32.32393646 29.05203918 32.33988953 29.83145142 C32.34160672 35.29006309 31.30676846 39.47096478 27.5 43.64453125 C22.09279135 47.85483174 17.72106323 48.82862423 11 48 C5.6964772 45.29820537 1.90167702 41.70503105 0 36 C-0.08507079 33.2684044 -0.11591565 30.56308557 -0.09765625 27.83203125 C-0.0962413 27.03721848 -0.09482635 26.2424057 -0.09336853 25.42350769 C-0.08777378 22.88646675 -0.07522228 20.34951425 -0.0625 17.8125 C-0.05748432 16.09179815 -0.05292153 14.37109492 -0.04882812 12.65039062 C-0.03865722 8.43353231 -0.01908084 4.21686509 0 0 Z " fill="#E8FE70" transform="translate(272,144)"/>
<path d="M0 0 C10.56 0 21.12 0 32 0 C32.0690497 5.0176117 32.12872743 10.03356045 32.16479492 15.05126953 C32.17983738 16.75640463 32.20027653 18.46150132 32.22631836 20.16650391 C32.26290284 22.62412012 32.27977173 25.08122269 32.29296875 27.5390625 C32.30845261 28.29555084 32.32393646 29.05203918 32.33988953 29.83145142 C32.34160672 35.29006309 31.30676846 39.47096478 27.5 43.64453125 C22.09279135 47.85483174 17.72106323 48.82862423 11 48 C5.6964772 45.29820537 1.90167702 41.70503105 0 36 C-0.08507079 33.2684044 -0.11591565 30.56308557 -0.09765625 27.83203125 C-0.0962413 27.03721848 -0.09482635 26.2424057 -0.09336853 25.42350769 C-0.08777378 22.88646675 -0.07522228 20.34951425 -0.0625 17.8125 C-0.05748432 16.09179815 -0.05292153 14.37109492 -0.04882812 12.65039062 C-0.03865722 8.43353231 -0.01908084 4.21686509 0 0 Z " fill="#FE6A6B" transform="translate(240,144)"/>
<path d="M0 0 C10.56 0 21.12 0 32 0 C32.0690497 5.0176117 32.12872743 10.03356045 32.16479492 15.05126953 C32.17983738 16.75640463 32.20027653 18.46150132 32.22631836 20.16650391 C32.26290284 22.62412012 32.27977173 25.08122269 32.29296875 27.5390625 C32.30845261 28.29555084 32.32393646 29.05203918 32.33988953 29.83145142 C32.34160672 35.29006309 31.30676846 39.47096478 27.5 43.64453125 C22.09279135 47.85483174 17.72106323 48.82862423 11 48 C5.6964772 45.29820537 1.90167702 41.70503105 0 36 C-0.08507079 33.2684044 -0.11591565 30.56308557 -0.09765625 27.83203125 C-0.0962413 27.03721848 -0.09482635 26.2424057 -0.09336853 25.42350769 C-0.08777378 22.88646675 -0.07522228 20.34951425 -0.0625 17.8125 C-0.05748432 16.09179815 -0.05292153 14.37109492 -0.04882812 12.65039062 C-0.03865722 8.43353231 -0.01908084 4.21686509 0 0 Z " fill="#E8FE70" transform="translate(208,144)"/>
<path d="M0 0 C10.56 0 21.12 0 32 0 C32.0690497 5.0176117 32.12872743 10.03356045 32.16479492 15.05126953 C32.17983738 16.75640463 32.20027653 18.46150132 32.22631836 20.16650391 C32.26290284 22.62412012 32.27977173 25.08122269 32.29296875 27.5390625 C32.30845261 28.29555084 32.32393646 29.05203918 32.33988953 29.83145142 C32.34160672 35.29006309 31.30676846 39.47096478 27.5 43.64453125 C22.09279135 47.85483174 17.72106323 48.82862423 11 48 C5.6964772 45.29820537 1.90167702 41.70503105 0 36 C-0.08507079 33.2684044 -0.11591565 30.56308557 -0.09765625 27.83203125 C-0.0962413 27.03721848 -0.09482635 26.2424057 -0.09336853 25.42350769 C-0.08777378 22.88646675 -0.07522228 20.34951425 -0.0625 17.8125 C-0.05748432 16.09179815 -0.05292153 14.37109492 -0.04882812 12.65039062 C-0.03865722 8.43353231 -0.01908084 4.21686509 0 0 Z " fill="#FE6A6B" transform="translate(176,144)"/>
<path d="M0 0 C10.56 0 21.12 0 32 0 C32.0690497 5.0176117 32.12872743 10.03356045 32.16479492 15.05126953 C32.17983738 16.75640463 32.20027653 18.46150132 32.22631836 20.16650391 C32.26290284 22.62412012 32.27977173 25.08122269 32.29296875 27.5390625 C32.30845261 28.29555084 32.32393646 29.05203918 32.33988953 29.83145142 C32.34160672 35.29006309 31.30676846 39.47096478 27.5 43.64453125 C22.09279135 47.85483174 17.72106323 48.82862423 11 48 C5.6964772 45.29820537 1.90167702 41.70503105 0 36 C-0.08507079 33.2684044 -0.11591565 30.56308557 -0.09765625 27.83203125 C-0.0962413 27.03721848 -0.09482635 26.2424057 -0.09336853 25.42350769 C-0.08777378 22.88646675 -0.07522228 20.34951425 -0.0625 17.8125 C-0.05748432 16.09179815 -0.05292153 14.37109492 -0.04882812 12.65039062 C-0.03865722 8.43353231 -0.01908084 4.21686509 0 0 Z " fill="#E8FE70" transform="translate(144,144)"/>
<path d="M0 0 C10.56 0 21.12 0 32 0 C32.0690497 5.0176117 32.12872743 10.03356045 32.16479492 15.05126953 C32.17983738 16.75640463 32.20027653 18.46150132 32.22631836 20.16650391 C32.26290284 22.62412012 32.27977173 25.08122269 32.29296875 27.5390625 C32.30845261 28.29555084 32.32393646 29.05203918 32.33988953 29.83145142 C32.34160672 35.29006309 31.30676846 39.47096478 27.5 43.64453125 C22.09279135 47.85483174 17.72106323 48.82862423 11 48 C5.6964772 45.29820537 1.90167702 41.70503105 0 36 C-0.08507079 33.2684044 -0.11591565 30.56308557 -0.09765625 27.83203125 C-0.0962413 27.03721848 -0.09482635 26.2424057 -0.09336853 25.42350769 C-0.08777378 22.88646675 -0.07522228 20.34951425 -0.0625 17.8125 C-0.05748432 16.09179815 -0.05292153 14.37109492 -0.04882812 12.65039062 C-0.03865722 8.43353231 -0.01908084 4.21686509 0 0 Z " fill="#FE6A6B" transform="translate(112,144)"/>
<path d="M0 0 C10.56 0 21.12 0 32 0 C32.0690497 5.0176117 32.12872743 10.03356045 32.16479492 15.05126953 C32.17983738 16.75640463 32.20027653 18.46150132 32.22631836 20.16650391 C32.26290284 22.62412012 32.27977173 25.08122269 32.29296875 27.5390625 C32.30845261 28.29555084 32.32393646 29.05203918 32.33988953 29.83145142 C32.34160672 35.29006309 31.30676846 39.47096478 27.5 43.64453125 C22.09279135 47.85483174 17.72106323 48.82862423 11 48 C5.6964772 45.29820537 1.90167702 41.70503105 0 36 C-0.08507079 33.2684044 -0.11591565 30.56308557 -0.09765625 27.83203125 C-0.0962413 27.03721848 -0.09482635 26.2424057 -0.09336853 25.42350769 C-0.08777378 22.88646675 -0.07522228 20.34951425 -0.0625 17.8125 C-0.05748432 16.09179815 -0.05292153 14.37109492 -0.04882812 12.65039062 C-0.03865722 8.43353231 -0.01908084 4.21686509 0 0 Z " fill="#FE6A6B" transform="translate(48,144)"/>
<path d="M0 0 C5.35203144 1.60560943 10.69905669 3.2330189 16 5 C16 13.91 16 22.82 16 32 C10.72 32 5.44 32 0 32 C0 21.44 0 10.88 0 0 Z " fill="#5B667C" transform="translate(360,320)"/>
<path d="M0 0 C5.28 0 10.56 0 16 0 C16 5.28 16 10.56 16 16 C10.72 16 5.44 16 0 16 C0 10.72 0 5.44 0 0 Z " fill="#33415C" transform="translate(232,360)"/>
<path d="M0 0 C5.28 0 10.56 0 16 0 C16 5.28 16 10.56 16 16 C10.72 16 5.44 16 0 16 C0 10.72 0 5.44 0 0 Z " fill="#33415C" transform="translate(184,360)"/>
</svg>
