<?xml version="1.0" encoding="UTF-8"?>
<svg version="1.1" xmlns="http://www.w3.org/2000/svg" width="512" height="512">
<path d="M0 0 C5.6626723 3.4146157 9.55540606 9.27209886 11.5 15.5 C11.74012677 18.77513977 11.68862586 22.03087374 11.625 25.3125 C11.61597656 26.19615234 11.60695313 27.07980469 11.59765625 27.99023438 C11.57419637 30.16027359 11.53832865 32.33017247 11.5 34.5 C12.1813822 34.49539104 12.8627644 34.49078207 13.56479454 34.48603344 C30.17519771 34.37541778 46.7854836 34.29277743 63.39616966 34.24093914 C71.42912431 34.21520157 79.46183249 34.18013679 87.49462891 34.12280273 C94.49932071 34.07283078 101.50383394 34.04067668 108.50869906 34.02955753 C112.21483964 34.0230619 115.92046953 34.00788997 119.62644577 33.97134972 C123.77251194 33.93080513 127.91770085 33.93005935 132.06396484 33.93237305 C133.28101105 33.91439667 134.49805725 33.89642029 135.75198364 33.87789917 C144.35468673 33.92971034 151.11090881 35.57650037 157.64063072 41.41355419 C163.10112262 46.99431489 165.5378771 53.24617319 165.875 61 C165.52908323 69.28758924 162.42522735 76.65122719 156.5 82.5 C150.93332774 86.33481867 145.89563829 88.62666884 139.09004211 88.62025452 C137.40523239 88.62231651 137.40523239 88.62231651 135.68638611 88.62442017 C133.83709251 88.61902725 133.83709251 88.61902725 131.95043945 88.61352539 C130.00394501 88.61374443 130.00394501 88.61374443 128.01812744 88.6139679 C124.45848745 88.61425514 120.89888107 88.60837019 117.3392489 88.60139394 C113.61965622 88.59514826 109.90006281 88.59455564 106.1804657 88.59336853 C99.13632227 88.5902588 92.09219434 88.58205023 85.04805773 88.57201904 C77.02879585 88.56084679 69.00953322 88.55534465 60.99026549 88.55032361 C44.49349982 88.53986733 27.9967555 88.52152629 11.5 88.5 C11.5 98.4 11.5 108.3 11.5 118.5 C14.47 118.83 17.44 119.16 20.5 119.5 C28.02124233 122.41869106 32.43236153 126.39182693 36.06445312 133.60839844 C37.79726337 137.73085097 37.88683858 141.41758241 37.79296875 145.83984375 C37.78872391 146.60680069 37.78447906 147.37375763 37.78010559 148.16395569 C37.7634507 150.58884332 37.72582553 153.01286798 37.6875 155.4375 C37.67243601 157.09178478 37.65875062 158.74608273 37.64648438 160.40039062 C37.61359077 164.43392103 37.56190249 168.46681473 37.5 172.5 C38.2719873 172.62745605 39.04397461 172.75491211 39.83935547 172.88623047 C45.52612503 174.19808023 50.50979907 179.63946656 53.77734375 184.3359375 C56.84507179 190.83768947 57.14047395 198.35879644 55.359375 205.23046875 C53.41723427 210.35948585 50.54249264 215.15839303 45.92236328 218.19311523 C43.20394007 220.32546759 43.20394007 220.32546759 42.93237305 223.70800781 C42.95855713 224.94389648 42.98474121 226.17978516 43.01171875 227.453125 C43.01879349 228.11334656 43.02586823 228.77356812 43.03315735 229.45379639 C43.06105273 231.55370492 43.12376713 233.65090379 43.1875 235.75 C43.21258983 237.1770447 43.23540183 238.60413138 43.25585938 240.03125 C43.3108588 243.52170748 43.39709088 247.01058911 43.5 250.5 C44.37027832 250.95745605 45.24055664 251.41491211 46.13720703 251.88623047 C47.29075684 252.49869629 48.44430664 253.11116211 49.6328125 253.7421875 C50.77121582 254.34401855 51.90961914 254.94584961 53.08251953 255.56591797 C58.20630708 258.465664 62.82039339 261.94379657 67.5 265.5 C68.89180584 266.50559793 70.28704119 267.50648814 71.6875 268.5 C72.615625 269.16 73.54375 269.82 74.5 270.5 C74.63535156 269.89414062 74.77070313 269.28828125 74.91015625 268.6640625 C77.58723805 258.24428302 82.79794397 251.12605302 91.58203125 244.97265625 C99.46921334 240.99211053 107.10496822 240.04789519 115.84375 240.1015625 C116.89348999 240.09869232 117.94322998 240.09582214 119.02478027 240.09286499 C121.22990462 240.09083619 123.43504746 240.09628252 125.64013672 240.10888672 C128.99097422 240.12495671 132.3406057 240.10899679 135.69140625 240.08984375 C137.8463568 240.09182639 140.0013066 240.0956705 142.15625 240.1015625 C143.14508179 240.09548981 144.13391357 240.08941711 145.15270996 240.0831604 C156.74727836 240.19882032 165.8494163 243.5065886 174.4765625 251.28125 C181.28683952 258.35234614 183.5 265.80600709 183.5 275.5 C204.29 275.5 225.08 275.5 246.5 275.5 C246.5 334.24 246.5 392.98 246.5 453.5 C225.71 453.5 204.92 453.5 183.5 453.5 C183.5 456.14 183.5 458.78 183.5 461.5 C181.43335106 471.18290061 174.51195951 479.06924912 166.4375 484.5 C159.30753033 488.89762302 151.03815394 488.8186229 142.94921875 488.8359375 C141.85462845 488.8425943 140.76003815 488.8492511 139.63227844 488.85610962 C137.32526316 488.86619617 135.01821895 488.87092788 132.71118164 488.87060547 C129.20865073 488.87497362 125.70738619 488.91132404 122.20507812 488.94921875 C119.95312926 488.95508897 117.70117448 488.95905699 115.44921875 488.9609375 C114.41552658 488.97530853 113.38183441 488.98967957 112.31681824 489.00448608 C101.73852265 488.93902892 92.2500532 485.89314286 84.5 478.5 C79.24083903 472.63125447 75.69375653 466.37879307 74.5 458.5 C74.07332031 458.82871094 73.64664062 459.15742188 73.20703125 459.49609375 C70.98664869 461.18541574 68.74617673 462.84510126 66.5 464.5 C65.55511719 465.19996094 64.61023438 465.89992188 63.63671875 466.62109375 C50.05025012 476.38372439 35.59063136 482.96208864 19.5 487.5 C17.69789063 488.01240234 17.69789063 488.01240234 15.859375 488.53515625 C-15.76382205 495.89336769 -50.18133042 489.38236617 -77.80859375 472.85546875 C-83.30732257 469.42797112 -88.44569354 465.5491887 -93.5 461.5 C-93.90089844 462.4178125 -94.30179688 463.335625 -94.71484375 464.28125 C-99.59704844 475.00106388 -105.20517538 482.23816778 -116.45703125 486.80859375 C-120.2117846 488.0793229 -123.5024308 488.62982968 -127.47705078 488.66113281 C-128.46553009 488.67074036 -129.4540094 488.6803479 -130.47244263 488.69024658 C-131.53598969 488.69449646 -132.59953674 488.69874634 -133.6953125 488.703125 C-134.79793427 488.70882507 -135.90055603 488.71452515 -137.03659058 488.72039795 C-139.37171471 488.72984296 -141.70685214 488.73637995 -144.04199219 488.74023438 C-147.59073619 488.74990661 -151.13889269 488.78092174 -154.6875 488.8125 C-156.96093408 488.81903384 -159.23437228 488.82428281 -161.5078125 488.828125 C-163.08491501 488.8466452 -163.08491501 488.8466452 -164.69387817 488.86553955 C-176.57123819 488.83015599 -184.82123818 485.85096983 -193.41015625 477.68359375 C-200.46767902 470.26645198 -202.5 463.70686985 -202.5 453.5 C-223.29 453.5 -244.08 453.5 -265.5 453.5 C-265.5 394.76 -265.5 336.02 -265.5 275.5 C-244.71 275.5 -223.92 275.5 -202.5 275.5 C-202.5 273.19 -202.5 270.88 -202.5 268.5 C-200.72298684 259.78890751 -196.23698238 253.20052355 -189.5 247.5 C-182.46465608 243.1073741 -175.92095294 240.40744191 -167.59301758 240.33886719 C-166.17047417 240.32445587 -166.17047417 240.32445587 -164.7191925 240.30975342 C-163.70455429 240.30550354 -162.68991608 240.30125366 -161.64453125 240.296875 C-160.58771652 240.29117493 -159.53090179 240.28547485 -158.44206238 240.27960205 C-156.2070719 240.27016784 -153.97206761 240.26362435 -151.73706055 240.25976562 C-148.34203368 240.25008422 -144.94761869 240.21905509 -141.55273438 240.1875 C-139.37500357 240.1809668 -137.19726846 240.17571757 -135.01953125 240.171875 C-134.01501419 240.1595282 -133.01049713 240.1471814 -131.97554016 240.13446045 C-121.53499474 240.16695952 -112.53122001 242.64808553 -104.5 249.5 C-99.41406183 254.8372197 -96.11126544 260.63934608 -93.5 267.5 C-92.64019531 266.85933594 -91.78039062 266.21867187 -90.89453125 265.55859375 C-89.70083353 264.68446865 -88.5068046 263.81079574 -87.3125 262.9375 C-86.75369141 262.51919922 -86.19488281 262.10089844 -85.61914062 261.66992188 C-79.60629863 257.29993288 -73.07688406 253.93062973 -66.5 250.5 C-66.32608899 246.33760235 -66.19954624 242.17716207 -66.11547852 238.01220703 C-66.0804165 236.59776962 -66.03274872 235.18358342 -65.97192383 233.77001953 C-65.32842641 225.68341194 -65.32842641 225.68341194 -67.98828125 218.37158203 C-69.75607101 216.91900478 -71.57307072 215.72719418 -73.5 214.5 C-78.5396808 207.29077051 -80.1963669 200.10225715 -78.9375 191.5 C-77.04738413 183.338705 -71.88251499 178.38920244 -65.33203125 173.53125 C-63.5 172.5 -63.5 172.5 -60.5 172.5 C-60.52618408 171.49211426 -60.55236816 170.48422852 -60.5793457 169.44580078 C-60.67068241 165.66266581 -60.72754761 161.87962566 -60.7746582 158.09570312 C-60.79961442 156.46630397 -60.83359254 154.83701458 -60.87719727 153.20800781 C-61.15124823 142.6973473 -61.20837721 133.91062782 -53.8190918 125.61230469 C-48.4007884 120.26060249 -41.94974939 118.5 -34.5 118.5 C-34.5 108.6 -34.5 98.7 -34.5 88.5 C-40.44918457 88.54713135 -40.44918457 88.54713135 -46.51855469 88.59521484 C-59.64607742 88.69478685 -72.7735947 88.76127592 -85.90139389 88.81087303 C-93.85812458 88.8417364 -101.81449606 88.88377146 -109.77099609 88.95263672 C-116.71051834 89.01267088 -123.64978029 89.05120374 -130.58955503 89.06453097 C-134.26009194 89.07231458 -137.92988458 89.09044658 -141.60018158 89.13438034 C-145.71001899 89.18317078 -149.81858441 89.18392462 -153.92871094 89.18115234 C-155.72946831 89.21350983 -155.72946831 89.21350983 -157.56660461 89.246521 C-166.61081125 89.1808307 -174.87575646 86.99563168 -181.5343895 80.522192 C-186.42486283 74.65055361 -189.12453937 67.19403477 -188.7890625 59.5390625 C-187.61558095 51.2612602 -184.19555049 44.42427811 -177.5625 39.25 C-172.82556435 35.74673944 -168.72391204 34.24840879 -162.81156921 34.25949097 C-161.67719925 34.25674164 -160.54282928 34.25399231 -159.37408447 34.25115967 C-158.13906189 34.25835022 -156.90403931 34.26554077 -155.6315918 34.27294922 C-153.67002892 34.27251114 -153.67002892 34.27251114 -151.6688385 34.27206421 C-148.09068107 34.27149114 -144.51265814 34.28323804 -140.93453193 34.29721212 C-137.19226755 34.30972707 -133.44999997 34.31089059 -129.7077179 34.31326294 C-122.62466126 34.31947546 -115.54166648 34.33588319 -108.45863706 34.35596192 C-100.39338702 34.37832801 -92.328134 34.38931613 -84.26286066 34.39935279 C-67.67520425 34.42024963 -51.08761002 34.45542117 -34.5 34.5 C-34.52320313 33.19587158 -34.54640625 31.89174316 -34.5703125 30.5480957 C-34.58907887 28.81982997 -34.60727814 27.09155801 -34.625 25.36328125 C-34.64175781 24.50577271 -34.65851563 23.64826416 -34.67578125 22.76477051 C-34.72731813 16.06014388 -33.92845793 10.79719848 -29.5 5.5 C-21.58687157 -1.95127268 -10.32991504 -4.55318585 0 0 Z " fill="#1C6693" transform="translate(265.5,11.5)"/>
<path d="M0 0 C1.04973999 -0.00287018 2.09947998 -0.00574036 3.18103027 -0.00869751 C5.38615462 -0.01072631 7.59129746 -0.00527998 9.79638672 0.00732422 C13.14722422 0.02339421 16.4968557 0.00743429 19.84765625 -0.01171875 C22.0026068 -0.00973611 24.1575566 -0.005892 26.3125 0 C27.79574768 -0.00910904 27.79574768 -0.00910904 29.30895996 -0.0184021 C40.90352836 0.09725782 50.0056663 3.4050261 58.6328125 11.1796875 C65.44308952 18.25078364 67.65625 25.70444459 67.65625 35.3984375 C88.44625 35.3984375 109.23625 35.3984375 130.65625 35.3984375 C130.65625 94.1384375 130.65625 152.8784375 130.65625 213.3984375 C109.86625 213.3984375 89.07625 213.3984375 67.65625 213.3984375 C67.65625 216.0384375 67.65625 218.6784375 67.65625 221.3984375 C65.58960106 231.08133811 58.66820951 238.96768662 50.59375 244.3984375 C43.46378033 248.79606052 35.19440394 248.7170604 27.10546875 248.734375 C25.4635833 248.7443602 25.4635833 248.7443602 23.78852844 248.75454712 C21.48151316 248.76463367 19.17446895 248.76936538 16.86743164 248.76904297 C13.36490073 248.77341112 9.86363619 248.80976154 6.36132812 248.84765625 C4.10937926 248.85352647 1.85742448 248.85749449 -0.39453125 248.859375 C-1.42822342 248.87374603 -2.46191559 248.88811707 -3.52693176 248.90292358 C-14.10522735 248.83746642 -23.5936968 245.79158036 -31.34375 238.3984375 C-36.60291097 232.52969197 -40.14999347 226.27723057 -41.34375 218.3984375 C-41.77042969 218.72714844 -42.19710937 219.05585938 -42.63671875 219.39453125 C-44.85710131 221.08385324 -47.09757327 222.74353876 -49.34375 224.3984375 C-50.28863281 225.09839844 -51.23351562 225.79835938 -52.20703125 226.51953125 C-63.4671932 234.61058162 -80.89759557 247.05947176 -95.23779297 244.85522461 C-98.7926321 244.08417151 -102.06430303 242.81655468 -105.40625 241.3984375 C-106.137229 241.09156006 -106.86820801 240.78468262 -107.62133789 240.46850586 C-119.27613096 235.41679538 -129.74969255 228.71866211 -139.34375 220.3984375 C-140.16230469 219.71265625 -140.98085937 219.026875 -141.82421875 218.3203125 C-163.75195626 199.4182628 -179.74590199 170.53166779 -183.1015625 141.59765625 C-183.52050447 135.64531651 -183.55277553 129.6755344 -183.59375 123.7109375 C-183.60325684 122.57011719 -183.61276367 121.42929687 -183.62255859 120.25390625 C-183.59446682 113.0790602 -182.87345818 106.402854 -181.34375 99.3984375 C-181.20839844 98.71676514 -181.07304687 98.03509277 -180.93359375 97.33276367 C-174.53816696 65.67292861 -154.86799555 38.04406141 -128.41308594 19.89404297 C-117.09117864 12.40592273 -102.3115632 2.98290926 -88.34375 4.3984375 C-84.94332373 5.30205209 -81.7644292 6.58195728 -78.53125 7.9609375 C-77.2153186 8.50838623 -77.2153186 8.50838623 -75.87280273 9.06689453 C-64.78012104 13.7806958 -55.34894392 19.88696024 -45.9609375 27.359375 C-43.54434546 29.38019232 -43.54434546 29.38019232 -41.34375 30.3984375 C-41.14072266 29.48964844 -41.14072266 29.48964844 -40.93359375 28.5625 C-38.25651195 18.14272052 -33.04580603 11.02449052 -24.26171875 4.87109375 C-16.37453666 0.89054803 -8.73878178 -0.05366731 0 0 Z " fill="#305968" transform="translate(381.34375,251.6015625)"/>
<path d="M0 0 C5.6626723 3.4146157 9.55540606 9.27209886 11.5 15.5 C11.74012677 18.77513977 11.68862586 22.03087374 11.625 25.3125 C11.61597656 26.19615234 11.60695313 27.07980469 11.59765625 27.99023438 C11.57419637 30.16027359 11.53832865 32.33017247 11.5 34.5 C12.1813822 34.49539104 12.8627644 34.49078207 13.56479454 34.48603344 C30.17519771 34.37541778 46.7854836 34.29277743 63.39616966 34.24093914 C71.42912431 34.21520157 79.46183249 34.18013679 87.49462891 34.12280273 C94.49932071 34.07283078 101.50383394 34.04067668 108.50869906 34.02955753 C112.21483964 34.0230619 115.92046953 34.00788997 119.62644577 33.97134972 C123.77251194 33.93080513 127.91770085 33.93005935 132.06396484 33.93237305 C133.28101105 33.91439667 134.49805725 33.89642029 135.75198364 33.87789917 C144.35468673 33.92971034 151.11090881 35.57650037 157.64063072 41.41355419 C163.10112262 46.99431489 165.5378771 53.24617319 165.875 61 C165.52908323 69.28758924 162.42522735 76.65122719 156.5 82.5 C150.93332774 86.33481867 145.89563829 88.62666884 139.09004211 88.62025452 C137.40523239 88.62231651 137.40523239 88.62231651 135.68638611 88.62442017 C133.83709251 88.61902725 133.83709251 88.61902725 131.95043945 88.61352539 C130.00394501 88.61374443 130.00394501 88.61374443 128.01812744 88.6139679 C124.45848745 88.61425514 120.89888107 88.60837019 117.3392489 88.60139394 C113.61965622 88.59514826 109.90006281 88.59455564 106.1804657 88.59336853 C99.13632227 88.5902588 92.09219434 88.58205023 85.04805773 88.57201904 C77.02879585 88.56084679 69.00953322 88.55534465 60.99026549 88.55032361 C44.49349982 88.53986733 27.9967555 88.52152629 11.5 88.5 C11.5 98.4 11.5 108.3 11.5 118.5 C14.47 118.83 17.44 119.16 20.5 119.5 C28.02124233 122.41869106 32.43236153 126.39182693 36.06445312 133.60839844 C37.79726337 137.73085097 37.88683858 141.41758241 37.79296875 145.83984375 C37.78872391 146.60680069 37.78447906 147.37375763 37.78010559 148.16395569 C37.7634507 150.58884332 37.72582553 153.01286798 37.6875 155.4375 C37.67243601 157.09178478 37.65875062 158.74608273 37.64648438 160.40039062 C37.61359077 164.43392103 37.56190249 168.46681473 37.5 172.5 C38.2719873 172.62745605 39.04397461 172.75491211 39.83935547 172.88623047 C45.52612503 174.19808023 50.50979907 179.63946656 53.77734375 184.3359375 C56.84507179 190.83768947 57.14047395 198.35879644 55.359375 205.23046875 C53.06827528 211.28105484 49.11426786 217.18247808 43.5 220.5 C36.2635983 223.3402077 29.57442188 223.92030794 21.86328125 223.828125 C20.76119827 223.82679565 19.6591153 223.82546631 18.52363586 223.82409668 C14.9529849 223.81521435 11.38299552 223.78379376 7.8125 223.75 C5.34359087 223.73537633 2.87467792 223.72138376 0.40576172 223.70800781 C-5.74652842 223.66903102 -11.89834894 223.60730221 -18.050354 223.53710938 C-21.28144241 223.50235112 -24.5124606 223.47595982 -27.74365234 223.453125 C-32.29737945 223.41936639 -36.85025822 223.36455986 -41.4034729 223.28845215 C-43.03309145 223.26309846 -44.66281145 223.24351604 -46.29257202 223.23010254 C-64.52798303 223.05784815 -64.52798303 223.05784815 -71.32885742 216.82348633 C-76.65676408 211.18598396 -79.47194837 204.28432674 -79.5 196.5 C-78.87539284 187.98633287 -75.79330756 182.29823807 -69.43359375 176.671875 C-64.14077103 172.5 -64.14077103 172.5 -60.5 172.5 C-60.52618408 171.49211426 -60.55236816 170.48422852 -60.5793457 169.44580078 C-60.67068241 165.66266581 -60.72754761 161.87962566 -60.7746582 158.09570312 C-60.79961442 156.46630397 -60.83359254 154.83701458 -60.87719727 153.20800781 C-61.15124823 142.6973473 -61.20837721 133.91062782 -53.8190918 125.61230469 C-48.4007884 120.26060249 -41.94974939 118.5 -34.5 118.5 C-34.5 108.6 -34.5 98.7 -34.5 88.5 C-40.44918457 88.54713135 -40.44918457 88.54713135 -46.51855469 88.59521484 C-59.64607742 88.69478685 -72.7735947 88.76127592 -85.90139389 88.81087303 C-93.85812458 88.8417364 -101.81449606 88.88377146 -109.77099609 88.95263672 C-116.71051834 89.01267088 -123.64978029 89.05120374 -130.58955503 89.06453097 C-134.26009194 89.07231458 -137.92988458 89.09044658 -141.60018158 89.13438034 C-145.71001899 89.18317078 -149.81858441 89.18392462 -153.92871094 89.18115234 C-155.72946831 89.21350983 -155.72946831 89.21350983 -157.56660461 89.246521 C-166.61081125 89.1808307 -174.87575646 86.99563168 -181.5343895 80.522192 C-186.42486283 74.65055361 -189.12453937 67.19403477 -188.7890625 59.5390625 C-187.61558095 51.2612602 -184.19555049 44.42427811 -177.5625 39.25 C-172.82556435 35.74673944 -168.72391204 34.24840879 -162.81156921 34.25949097 C-161.67719925 34.25674164 -160.54282928 34.25399231 -159.37408447 34.25115967 C-158.13906189 34.25835022 -156.90403931 34.26554077 -155.6315918 34.27294922 C-153.67002892 34.27251114 -153.67002892 34.27251114 -151.6688385 34.27206421 C-148.09068107 34.27149114 -144.51265814 34.28323804 -140.93453193 34.29721212 C-137.19226755 34.30972707 -133.44999997 34.31089059 -129.7077179 34.31326294 C-122.62466126 34.31947546 -115.54166648 34.33588319 -108.45863706 34.35596192 C-100.39338702 34.37832801 -92.328134 34.38931613 -84.26286066 34.39935279 C-67.67520425 34.42024963 -51.08761002 34.45542117 -34.5 34.5 C-34.52320313 33.19587158 -34.54640625 31.89174316 -34.5703125 30.5480957 C-34.58907887 28.81982997 -34.60727814 27.09155801 -34.625 25.36328125 C-34.64175781 24.50577271 -34.65851563 23.64826416 -34.67578125 22.76477051 C-34.72731813 16.06014388 -33.92845793 10.79719848 -29.5 5.5 C-21.58687157 -1.95127268 -10.32991504 -4.55318585 0 0 Z " fill="#F85757" transform="translate(265.5,11.5)"/>
<path d="M0 0 C0.87221191 0.36061523 1.74442383 0.72123047 2.64306641 1.09277344 C9.52232875 4.00259302 15.9293702 7.34339639 22.1875 11.4375 C23.7278968 12.22834032 23.7278968 12.22834032 25.29941273 13.0351572 C28.1875 15.4375 28.1875 15.4375 28.92413616 19.05481625 C28.94848438 20.54156215 28.93951161 22.02907182 28.90470886 23.51560974 C28.90927969 24.33629364 28.91385051 25.15697753 28.91855985 26.00253063 C28.92645009 28.75698919 28.8912524 31.50920542 28.85620117 34.26342773 C28.85283219 36.23617285 28.85204045 38.2089238 28.8536377 40.18167114 C28.84997572 45.54355531 28.80831142 50.90453466 28.75859237 56.26616549 C28.71159012 61.87316719 28.69473755 67.48027057 28.67341614 73.0874176 C28.63273573 82.50552175 28.56736625 91.92321592 28.48754883 101.34106445 C28.39555269 112.2325989 28.34277124 123.12378956 28.31099528 134.01565403 C28.27951347 144.48737975 28.21996063 154.9587668 28.14769936 165.4302845 C28.11744455 169.88911058 28.09711592 174.34781975 28.08473778 178.80673027 C28.06891174 184.05765675 28.02855772 189.30783573 27.96920013 194.55844498 C27.95135429 196.48651854 27.94198012 198.4146917 27.9416523 200.34284782 C27.93980427 202.97351699 27.90738308 205.60208561 27.86711121 208.23240662 C27.87369175 208.99719454 27.88027229 209.76198246 27.88705224 210.54994577 C27.79166266 214.48851798 27.35099047 216.23798445 24.82251453 219.32360935 C15.87661012 226.50029223 5.83430034 231.34558408 -4.8125 235.4375 C-5.77285156 235.84226562 -6.73320312 236.24703125 -7.72265625 236.6640625 C-14.53863857 238.37021231 -20.63436752 236.0856414 -26.875 233.4375 C-27.605979 233.13062256 -28.33695801 232.82374512 -29.09008789 232.50756836 C-40.74488096 227.45585788 -51.21844255 220.75772461 -60.8125 212.4375 C-61.63105469 211.75171875 -62.44960937 211.0659375 -63.29296875 210.359375 C-85.22070626 191.4573253 -101.21465199 162.57073029 -104.5703125 133.63671875 C-104.98925447 127.68437901 -105.02152553 121.7145969 -105.0625 115.75 C-105.07200684 114.60917969 -105.08151367 113.46835937 -105.09130859 112.29296875 C-105.06321682 105.1181227 -104.34220818 98.4419165 -102.8125 91.4375 C-102.67714844 90.75582764 -102.54179687 90.07415527 -102.40234375 89.37182617 C-96.00691696 57.71199111 -76.33674555 30.08312391 -49.88183594 11.93310547 C-34.30502015 1.63085987 -18.27548269 -7.78931762 0 0 Z " fill="#4182B1" transform="translate(302.8125,259.5625)"/>
<path d="M0 0 C0 65.01 0 130.02 0 197 C-12.94994648 197 -21.38278867 195.60062691 -31 187 C-36.01247592 181.29972194 -41 173.89699661 -41 166 C-61.79 166 -82.58 166 -104 166 C-104 122.77 -104 79.54 -104 35 C-83.21 35 -62.42 35 -41 35 C-41 32.69 -41 30.38 -41 28 C-39.22298684 19.28890751 -34.73698238 12.70052355 -28 7 C-18.42014107 1.01866676 -11.59299748 0 0 0 Z " fill="#4182B1" transform="translate(104,252)"/>
<path d="M0 0 C13.53358348 0 22.04943874 1.83506732 31.9765625 10.78125 C38.78683952 17.85234614 41 25.30600709 41 35 C61.79 35 82.58 35 104 35 C104 78.23 104 121.46 104 166 C83.21 166 62.42 166 41 166 C40.34 168.64 39.68 171.28 39 174 C35.23245438 184.01824631 28.49752353 190.5104984 18.91015625 194.97265625 C12.13662878 197.60612534 7.90862531 197 0 197 C0 131.99 0 66.98 0 0 Z " fill="#4182B1" transform="translate(408,252)"/>
<path d="M0 0 C8.91 0 17.82 0 27 0 C27 81.84 27 163.68 27 248 C-20.53548387 248 -20.53548387 248 -31.91015625 237.18359375 C-38.96767902 229.76645198 -41 223.20686985 -41 213 C-61.79 213 -82.58 213 -104 213 C-104 197.49 -104 181.98 -104 166 C-83.21 166 -62.42 166 -41 166 C-39.35 170.29 -37.7 174.58 -36 179 C-30.7756866 187.0925639 -24.4959434 192.64484592 -15.0625 195.3125 C-10.08108358 196.15550893 -5.03149589 196.54259128 0 197 C0 131.99 0 66.98 0 0 Z " fill="#305968" transform="translate(104,252)"/>
<path d="M0 0 C1.81334839 -0.00430527 1.81334839 -0.00430527 3.66333008 -0.00869751 C6.20817536 -0.01073046 8.75303655 -0.00525471 11.29785156 0.00732422 C15.17548834 0.02338774 19.05208284 0.00744812 22.9296875 -0.01171875 C25.41146062 -0.00973618 27.89323309 -0.00589223 30.375 0 C31.52524658 -0.00607269 32.67549316 -0.01214539 33.8605957 -0.0184021 C42.09067767 0.05290563 50.09726739 0.84735334 56.5 6.5234375 C57.11488281 7.04164063 57.72976563 7.55984375 58.36328125 8.09375 C65.47638161 17.08032219 64.66979473 26.55513799 64.4375 37.4609375 C64.41740347 39.10609804 64.39915827 40.75128229 64.3828125 42.39648438 C64.33906759 46.39772819 64.2702166 50.39781735 64.1875 54.3984375 C64.9594873 54.52589355 65.73147461 54.65334961 66.52685547 54.78466797 C72.21362503 56.09651773 77.19729907 61.53790406 80.46484375 66.234375 C83.53257179 72.73612697 83.82797395 80.25723394 82.046875 87.12890625 C79.75577528 93.17949234 75.80176786 99.08091558 70.1875 102.3984375 C62.9510983 105.2386452 56.26192188 105.81874544 48.55078125 105.7265625 C47.44869827 105.72523315 46.3466153 105.72390381 45.21113586 105.72253418 C41.6404849 105.71365185 38.07049552 105.68223126 34.5 105.6484375 C32.03109087 105.63381383 29.56217792 105.61982126 27.09326172 105.60644531 C20.94097158 105.56746852 14.78915106 105.50573971 8.637146 105.43554688 C5.40605759 105.40078862 2.1750394 105.37439732 -1.05615234 105.3515625 C-5.60987945 105.31780389 -10.16275822 105.26299736 -14.7159729 105.18688965 C-16.34559145 105.16153596 -17.97531145 105.14195354 -19.60507202 105.12854004 C-37.84048303 104.95628565 -37.84048303 104.95628565 -44.64135742 98.72192383 C-49.96926408 93.08442146 -52.78444837 86.18276424 -52.8125 78.3984375 C-52.18789284 69.88477037 -49.10580756 64.19667557 -42.74609375 58.5703125 C-37.45327103 54.3984375 -37.45327103 54.3984375 -33.8125 54.3984375 C-33.83868408 53.39055176 -33.86486816 52.38266602 -33.8918457 51.34423828 C-33.98318241 47.56110331 -34.04004761 43.77806316 -34.0871582 39.99414062 C-34.11211442 38.36474147 -34.14609254 36.73545208 -34.18969727 35.10644531 C-34.46373965 24.59611389 -34.46795824 15.98067145 -27.25415039 7.5847168 C-19.58391898 0.2222245 -10.11237171 -0.05338797 0 0 Z " fill="#CBCBCB" transform="translate(238.8125,129.6015625)"/>
<path d="M0 0 C0 65.01 0 130.02 0 197 C-12.59976698 197 -21.08238049 195.73876036 -30.25 186.953125 C-39.08741325 177.08994057 -40.29607576 168.49449037 -40.36645508 155.60424805 C-40.38068272 154.2499915 -40.39571916 152.89574325 -40.41149902 151.54150391 C-40.45148955 147.8781825 -40.47906625 144.21486869 -40.50351167 140.55141425 C-40.52496494 137.48507512 -40.55216116 134.41879707 -40.57922095 131.35250312 C-40.64286794 124.11306407 -40.69605689 116.87359881 -40.74291992 109.6340332 C-40.79133806 102.18522755 -40.85821083 94.73674756 -40.93408471 87.28817528 C-40.99869388 80.8761094 -41.05131711 74.46401874 -41.0945732 68.05177337 C-41.12050162 64.22960203 -41.15094232 60.40760656 -41.19312477 56.58557701 C-41.23234367 52.98798951 -41.25649865 49.3905985 -41.26950836 45.79282379 C-41.28011358 43.85765411 -41.30576711 41.9225848 -41.33201599 39.98756409 C-41.34609543 28.18767552 -38.97556445 18.93503085 -31 10 C-21.37043471 1.40448199 -12.96258433 0 0 0 Z " fill="#4182B1" transform="translate(381,252)"/>
<path d="M0 0 C12.15762912 0 20.76921256 1.12214801 30 9 C39.07250642 18.51291935 40.44819141 27.20181731 40.40405273 39.96826172 C40.40976337 41.37192323 40.41673031 42.7755801 40.42485046 44.17922974 C40.442722 47.97276244 40.44162472 51.76606307 40.43590808 55.55962515 C40.43280703 58.73535024 40.43891893 61.91103134 40.44494683 65.08675015 C40.45897116 72.58374991 40.45744866 80.08063567 40.44604492 87.57763672 C40.43456975 95.29168153 40.44863387 103.00537843 40.4754414 110.7193774 C40.49765088 117.36085377 40.50422388 124.00222135 40.49836498 130.64373219 C40.49500623 134.60224247 40.49733782 138.56052986 40.51461601 142.51900864 C40.53016685 146.24400385 40.52604059 149.9684868 40.50731087 153.69346237 C40.50191162 155.69772914 40.51607755 157.70201935 40.53100586 159.70623779 C40.43583697 171.45289548 37.57402365 179.29595809 29.4296875 187.80078125 C20.49778595 195.88544455 11.89761809 197 0 197 C0 131.99 0 66.98 0 0 Z " fill="#4182B1" transform="translate(131,252)"/>
<path d="M0 0 C20.79 0 41.58 0 63 0 C63 15.51 63 31.02 63 47 C42.21 47 21.42 47 0 47 C0 49.64 0 52.28 0 55 C-2.06664894 64.68290061 -8.98804049 72.56924912 -17.0625 78 C-25.03753074 82.43405442 -31.69227659 82 -41 82 C-41 65.17 -41 48.34 -41 31 C-35.72 30.34 -30.44 29.68 -25 29 C-21.23167222 27.42641257 -18.32494492 26.14640009 -15 24 C-14.0925 23.4225 -13.185 22.845 -12.25 22.25 C-5.76337782 15.76337782 -3.17949504 8.74361135 0 0 Z " fill="#1C6693" transform="translate(449,418)"/>
<path d="M0 0 C20.79 0 41.58 0 63 0 C64.65 4.29 66.3 8.58 68 13 C73.2243134 21.0925639 79.5040566 26.64484592 88.9375 29.3125 C93.91891642 30.15550893 98.96850411 30.54259128 104 31 C104 47.83 104 64.66 104 82 C89.67296624 82 82.1271937 80.72831303 72.08984375 71.18359375 C65.03232098 63.76645198 63 57.20686985 63 47 C42.21 47 21.42 47 0 47 C0 31.49 0 15.98 0 0 Z " fill="#1C6693" transform="translate(0,418)"/>
<path d="M0 0 C1.28856651 -0.00043808 1.28856651 -0.00043808 2.60316467 -0.00088501 C5.43305683 0.00050458 8.26268332 0.01604833 11.0925293 0.03173828 C13.0583634 0.03546973 15.02419938 0.03831608 16.99003601 0.04031372 C22.15708577 0.04793978 27.3240226 0.06757951 32.49102783 0.08972168 C37.76638257 0.11020219 43.04175561 0.11932016 48.31713867 0.12939453 C58.66289134 0.15082633 69.00856029 0.18494993 79.35424805 0.22705078 C77.69197211 1.33523474 76.01801131 2.42815237 74.3034668 3.45361328 C67.90889943 7.40742177 62.78615123 11.93134122 60.35424805 19.22705078 C59.57747083 28.38192511 59.49453125 36.66886535 65.35424805 44.22705078 C69.72732855 48.52694165 74.6582963 51.09106888 80.35424805 53.22705078 C80.35424805 53.55705078 80.35424805 53.88705078 80.35424805 54.22705078 C69.08788231 54.3665805 57.82172492 54.47293954 46.55466843 54.53792381 C41.32185922 54.56912634 36.08964475 54.61139513 30.85717773 54.6796875 C25.79965692 54.74527721 20.74270514 54.78083997 15.68479156 54.79631424 C13.76318667 54.80732991 11.84161001 54.82883999 9.92024994 54.86143112 C-1.16573767 55.04185711 -10.3582028 55.08153607 -19.64575195 48.22705078 C-25.40181837 42.55541881 -28.63512896 35.32513373 -29.02075195 27.22705078 C-28.71413872 20.2306943 -26.07156255 13.60979339 -21.64575195 8.22705078 C-14.73121458 2.16956741 -9.26581284 -0.08277705 0 0 Z " fill="#E23333" transform="translate(105.645751953125,45.77294921875)"/>
<path d="M0 0 C1.32 0.66 2.64 1.32 4 2 C4.62467069 2.27386221 5.24934137 2.54772442 5.89294147 2.82988548 C8.07846159 4.01462277 9.4403294 5.04836725 11 7 C12.04864359 11.34030274 11.90127619 15.6153932 11.82299805 20.06103516 C11.82433848 21.40352011 11.82881402 22.74600505 11.83618164 24.08847046 C11.84542005 26.97592524 11.83274585 29.8621553 11.80304527 32.74946976 C11.75635503 37.32339347 11.75987746 41.8964507 11.7702179 46.47055054 C11.78203613 54.53850159 11.75115406 62.60586961 11.71105957 70.67370605 C11.65128649 82.79635949 11.62686141 94.91903973 11.63930541 107.04183042 C11.64239827 111.57928718 11.62412843 116.11599034 11.58831251 120.65330052 C11.56962698 123.4901922 11.56744633 126.32693786 11.5692215 129.16388321 C11.56534072 131.08575163 11.54139609 133.00754766 11.51661682 134.92926025 C11.55499645 146.74682664 14.37519222 155.35046599 22.62890625 163.90234375 C25.85195521 166.75370667 28.98267561 168.52266135 33 170 C33.9075 170.391875 34.815 170.78375 35.75 171.1875 C40.71626693 172.42906673 45.89857187 172.57488099 51 173 C51 189.83 51 206.66 51 224 C38.41087316 224 29.1219653 222.70187479 20 214 C14.74083903 208.13125447 11.19375653 201.87879307 10 194 C9.45730469 194.433125 8.91460937 194.86625 8.35546875 195.3125 C7.64003906 195.869375 6.92460937 196.42625 6.1875 197 C5.47980469 197.556875 4.77210938 198.11375 4.04296875 198.6875 C2 200 2 200 -1 200 C-0.67 134 -0.34 68 0 0 Z " fill="#1D6693" transform="translate(330,276)"/>
<path d="M0 0 C1.6451245 0.06336752 3.29030771 0.12522961 4.93554688 0.18554688 C8.93708648 0.33550007 12.93727864 0.50585973 16.9375 0.6875 C14.68915261 2.41477117 12.53888819 3.91280233 10.0625 5.3125 C4.54477023 9.50597462 1.02336102 14.82905399 -0.0625 21.6875 C-0.20813628 24.10859498 -0.30906568 26.53256572 -0.37890625 28.95703125 C-0.39968735 29.63803391 -0.42046844 30.31903656 -0.44187927 31.02067566 C-0.50687878 33.18035508 -0.56602712 35.34014846 -0.625 37.5 C-0.6682325 38.97071456 -0.71184825 40.44141791 -0.75585938 41.91210938 C-0.86250859 45.50378717 -0.96391349 49.09559082 -1.0625 52.6875 C-1.75102051 53.02668457 -2.43954102 53.36586914 -3.14892578 53.71533203 C-4.0511084 54.16247559 -4.95329102 54.60961914 -5.8828125 55.0703125 C-6.77758301 55.51262207 -7.67235352 55.95493164 -8.59423828 56.41064453 C-14.51685272 59.4744698 -17.14752868 62.85755736 -20.0625 68.6875 C-22.42217095 76.14155988 -22.01926913 84.69137714 -18.46484375 91.6484375 C-14.96344037 96.73961456 -10.08379916 100.99400961 -4.0625 102.6875 C-4.0625 103.0175 -4.0625 103.3475 -4.0625 103.6875 C-8.88218303 103.7871515 -13.70125277 103.85933311 -18.52172852 103.90722656 C-20.15790264 103.92721332 -21.79400651 103.95441243 -23.42993164 103.98925781 C-42.94970992 104.39430661 -42.94970992 104.39430661 -49.88574219 98.0090332 C-55.22612432 92.38549991 -58.03446808 85.46635676 -58.0625 77.6875 C-57.43789284 69.17383287 -54.35580756 63.48573807 -47.99609375 57.859375 C-42.70327103 53.6875 -42.70327103 53.6875 -39.0625 53.6875 C-39.08868408 52.67961426 -39.11486816 51.67172852 -39.1418457 50.63330078 C-39.23318241 46.85016581 -39.29004761 43.06712566 -39.3371582 39.28320312 C-39.36211442 37.65380397 -39.39609254 36.02451458 -39.43969727 34.39550781 C-39.71373965 23.88517639 -39.71795824 15.26973395 -32.50415039 6.8737793 C-23.27715131 -1.98302124 -11.7586737 -0.53990896 0 0 Z " fill="#B3B3B3" transform="translate(244.0625,130.3125)"/>
<path d="M0 0 C2.475 0.495 2.475 0.495 5 1 C7.35969958 1.147943 9.72260851 1.24751998 12.0859375 1.31640625 C12.79548584 1.3373233 13.50503418 1.35824036 14.23608398 1.37979126 C16.61560345 1.44686885 18.99521526 1.50564236 21.375 1.5625 C22.20026184 1.58301422 23.02552368 1.60352844 23.87579346 1.62466431 C39.14263759 1.99330177 54.41144697 2.1332578 69.68243408 2.17623901 C72.13390266 2.1837151 74.58536371 2.19436939 77.0368042 2.20828247 C80.51158517 2.22621381 83.98611551 2.23031022 87.4609375 2.23046875 C89.01035034 2.24117905 89.01035034 2.24117905 90.59106445 2.25210571 C92.05491577 2.24755875 92.05491577 2.24755875 93.54833984 2.24291992 C94.80751724 2.24505745 94.80751724 2.24505745 96.09213257 2.24723816 C100.11696433 1.90503136 104.05683544 0.87625879 108 0 C108 9.9 108 19.8 108 30 C99 27 99 27 96.0234375 25.9375 C82.48544011 21.14528854 69.56094242 19.43770023 55.3125 19.5625 C54.57187317 19.56554138 53.83124634 19.56858276 53.06817627 19.57171631 C35.9396606 19.67539145 20.84618855 22.32509898 4.9921875 28.828125 C2 30 2 30 0 30 C0 20.1 0 10.2 0 0 Z " fill="#315A68" transform="translate(200,232)"/>
<path d="M0 0 C8.91 0 17.82 0 27 0 C27 21.12 27 42.24 27 64 C18.09 64 9.18 64 0 64 C0 42.88 0 21.76 0 0 Z " fill="#1C414B" transform="translate(381,436)"/>
<path d="M0 0 C8.91 0 17.82 0 27 0 C27 21.12 27 42.24 27 64 C18.09 64 9.18 64 0 64 C0 42.88 0 21.76 0 0 Z " fill="#1C414B" transform="translate(104,436)"/>
<path d="M0 0 C5.94898997 3.58726649 8.99133784 9.2283446 11.5 15.5 C11.5 21.77 11.5 28.04 11.5 34.5 C-3.68 34.5 -18.86 34.5 -34.5 34.5 C-34.5 11.48086124 -34.5 11.48086124 -29.5 5.5 C-21.58687157 -1.95127268 -10.32991504 -4.55318585 0 0 Z " fill="#1B414B" transform="translate(265.5,11.5)"/>
<path d="M0 0 C15.18 0 30.36 0 46 0 C46 10.23 46 20.46 46 31 C30.82 31 15.64 31 0 31 C0 20.77 0 10.54 0 0 Z " fill="#315967" transform="translate(231,100)"/>
<path d="M0 0 C4.455 0.99 4.455 0.99 9 2 C11.4025227 2.20794583 13.81202356 2.34920243 16.22265625 2.4140625 C18.14174805 2.47207031 18.14174805 2.47207031 20.09960938 2.53125 C21.40736328 2.5621875 22.71511719 2.593125 24.0625 2.625 C25.4186424 2.66326971 26.77476282 2.70232633 28.13085938 2.7421875 C31.42036236 2.83583883 34.71016168 2.91898 38 3 C38 8.61 38 14.22 38 20 C36.741875 20.21914062 35.48375 20.43828125 34.1875 20.6640625 C24.01123324 22.52082689 14.57361685 24.91554027 4.9921875 28.828125 C2 30 2 30 0 30 C0 20.1 0 10.2 0 0 Z " fill="#1C414B" transform="translate(200,232)"/>
<path d="M0 0 C5.15304073 3.31266904 8.91458231 8.82550511 10.625 14.6875 C10.85682902 17.96433519 10.8131575 21.21720729 10.75 24.5 C10.70875 27.531875 10.6675 30.56375 10.625 33.6875 C2.375 33.6875 -5.875 33.6875 -14.375 33.6875 C-14.8922029 11.62017621 -14.8922029 11.62017621 -6.375 2.6875 C-3.25872093 -0.42877907 -3.25872093 -0.42877907 0 0 Z " fill="#2F5866" transform="translate(266.375,12.3125)"/>
<path d="M0 0 C6.93 0 13.86 0 21 0 C21 9.9 21 19.8 21 30 C14.07 30 7.14 30 0 30 C0 20.1 0 10.2 0 0 Z " fill="#1B414B" transform="translate(231,100)"/>
<path d="M0 0 C0.66 0.33 1.32 0.66 2 1 C-1.3 4.3 -4.6 7.6 -8 11 C-8 6.67750434 -5.85084926 5.11604454 -3 2 C-2.01 1.34 -1.02 0.68 0 0 Z " fill="#397DAB" transform="translate(355,258)"/>
</svg>
