<?xml version="1.0" encoding="UTF-8"?>
<svg version="1.1" xmlns="http://www.w3.org/2000/svg" width="512" height="512">
<path d="M0 0 C58.74 0 117.48 0 178 0 C178 22.11 178 44.22 178 67 C181.3 67.99 184.6 68.98 188 70 C190.85158441 71.11959614 193.65548917 72.26276735 196.4609375 73.484375 C197.23760269 73.81703873 198.01426788 74.14970245 198.81446838 74.4924469 C200.47601079 75.20469534 202.13653839 75.9193152 203.79611206 76.63613892 C208.22276563 78.54807819 212.65680764 80.4427621 217.08984375 82.33984375 C218.44581413 82.92097176 218.44581413 82.92097176 219.82917786 83.51383972 C229.92766475 87.83663824 240.07005683 92.05283893 250.21820068 96.25744629 C251.67809369 96.8623182 253.13783016 97.46756804 254.59739685 98.07322693 C256.50059259 98.86282288 258.40444303 99.6508403 260.30834961 100.4387207 C264.56241639 102.23785813 268.77922131 104.12409836 273 106 C273 132.73 273 159.46 273 187 C279.6 187 286.2 187 293 187 C293 197.23 293 207.46 293 218 C286.4 218 279.8 218 273 218 C273 242.42 273 266.84 273 292 C279.6 292 286.2 292 293 292 C293 301.9 293 311.8 293 322 C286.4 322 279.8 322 273 322 C273 346.09 273 370.18 273 395 C279.6 395 286.2 395 293 395 C293 405.23 293 415.46 293 426 C286.4 426 279.8 426 273 426 C273 454.38 273 482.76 273 512 C151.56 512 30.12 512 -95 512 C-95 483.62 -95 455.24 -95 426 C-101.6 426 -108.2 426 -115 426 C-115 415.77 -115 405.54 -115 395 C-108.4 395 -101.8 395 -95 395 C-95 370.91 -95 346.82 -95 322 C-101.6 322 -108.2 322 -115 322 C-115 312.1 -115 302.2 -115 292 C-108.4 292 -101.8 292 -95 292 C-95 267.58 -95 243.16 -95 218 C-101.6 218 -108.2 218 -115 218 C-115 207.77 -115 197.54 -115 187 C-108.4 187 -101.8 187 -95 187 C-95 160.27 -95 133.54 -95 106 C-77.4657617 98.48532644 -59.92792158 91.00564512 -42.3125 83.6875 C-40.27143131 82.83801812 -38.23041572 81.98840863 -36.18945312 81.13867188 C-31.35679844 79.12721054 -26.5220388 77.12086986 -21.68658447 75.1161499 C-19.06706875 74.02786392 -16.45004357 72.93377896 -13.83349609 71.83837891 C-12.27835435 71.190348 -10.72318062 70.54239385 -9.16796875 69.89453125 C-8.4634407 69.59786057 -7.75891266 69.30118988 -7.03303528 68.99552917 C-2.22665759 67 -2.22665759 67 0 67 C0 44.89 0 22.78 0 0 Z " fill="#4793FF" transform="translate(167,0)"/>
<path d="M0 0 C58.74 0 117.48 0 178 0 C178 21.78 178 43.56 178 66 C176.1894779 67.8105221 173.70498161 67.11994552 171.29567623 67.12442875 C170.47485845 67.12083064 169.65404066 67.11723253 168.80834961 67.11352539 C167.93595674 67.11364593 167.06356386 67.11376646 166.16473484 67.11389065 C163.32724564 67.11314138 160.48982128 67.10551252 157.65234375 67.09765625 C155.90596549 67.09618687 154.15958679 67.09516614 152.41320801 67.09460449 C145.92129864 67.0893511 139.42939869 67.07539003 132.9375 67.0625 C118.438125 67.041875 103.93875 67.02125 89 67 C89 106.93 89 146.86 89 188 C28.28 188 -32.44 188 -95 188 C-95 160.94 -95 133.88 -95 106 C-77.4657617 98.48532644 -59.92792158 91.00564512 -42.3125 83.6875 C-40.27143131 82.83801812 -38.23041572 81.98840863 -36.18945312 81.13867188 C-31.35679844 79.12721054 -26.5220388 77.12086986 -21.68658447 75.1161499 C-19.06706875 74.02786392 -16.45004357 72.93377896 -13.83349609 71.83837891 C-12.27835435 71.190348 -10.72318062 70.54239385 -9.16796875 69.89453125 C-8.4634407 69.59786057 -7.75891266 69.30118988 -7.03303528 68.99552917 C-2.22665759 67 -2.22665759 67 0 67 C0 44.89 0 22.78 0 0 Z " fill="#4693FE" transform="translate(167,0)"/>
<path d="M0 0 C4.37137092 2.256881 8.93579724 4.01915177 13.49685669 5.85186768 C15.2489002 6.58160633 16.9995688 7.31465527 18.74880981 8.05108643 C22.20087467 9.5015556 25.65388405 10.94969974 29.10818481 12.39483643 C43.98691478 18.63341337 58.80308547 25.0037559 73.63357544 31.35968018 C73.63357544 58.41968018 73.63357544 85.47968018 73.63357544 113.35968018 C12.91357544 113.35968018 -47.80642456 113.35968018 -110.36642456 113.35968018 C-110.36642456 73.42968018 -110.36642456 33.49968018 -110.36642456 -7.64031982 C-96.36204956 -8.01156982 -82.35767456 -8.38281982 -67.92892456 -8.76531982 C-63.56230591 -8.90856689 -59.19568726 -9.05181396 -54.69674683 -9.19940186 C-34.65104844 -9.68045175 -18.10221853 -9.63196185 0 0 Z " fill="#5D59CE" transform="translate(366.3664245605469,74.64031982421875)"/>
<path d="M0 0 C60.72 0 121.44 0 184 0 C184 28.38 184 56.76 184 86 C123.28 86 62.56 86 0 86 C0 57.62 0 29.24 0 0 Z " fill="#5D59CE" transform="translate(256,426)"/>
<path d="M0 0 C60.72 0 121.44 0 184 0 C184 24.42 184 48.84 184 74 C123.28 74 62.56 74 0 74 C0 49.58 0 25.16 0 0 Z " fill="#5D59CE" transform="translate(256,322)"/>
<path d="M0 0 C60.72 0 121.44 0 184 0 C184 24.42 184 48.84 184 74 C123.28 74 62.56 74 0 74 C0 49.58 0 25.16 0 0 Z " fill="#5D59CE" transform="translate(256,218)"/>
<path d="M0 0 C0 10.23 0 20.46 0 31 C-67.32 31 -134.64 31 -204 31 C-204 21.1 -204 11.2 -204 1 C-180.35479709 0.86896897 -156.70959102 0.73852674 -133.06438065 0.60884857 C-122.08360887 0.54861183 -111.10283828 0.48817314 -100.12207031 0.42724609 C-90.54266034 0.37409504 -80.96324829 0.32133608 -71.38383365 0.26903296 C-66.31943781 0.24136831 -61.25504315 0.21351752 -56.19065094 0.18519592 C-51.40710958 0.15845116 -46.62356558 0.13223741 -41.84001923 0.10640144 C-40.10040686 0.09691754 -38.36079548 0.08725267 -36.6211853 0.07737541 C-24.41393177 0.00821425 -12.20746979 -0.00795666 0 0 Z " fill="#4793FE" transform="translate(460,395)"/>
<path d="M0 0 C67.32 0.33 134.64 0.66 204 1 C204 10.9 204 20.8 204 31 C136.68 31 69.36 31 0 31 C0 20.77 0 10.54 0 0 Z " fill="#4ACFFF" transform="translate(52,395)"/>
<path d="M0 0 C0 10.23 0 20.46 0 31 C-67.32 31 -134.64 31 -204 31 C-204 21.1 -204 11.2 -204 1 C-180.35479709 0.86896897 -156.70959102 0.73852674 -133.06438065 0.60884857 C-122.08360887 0.54861183 -111.10283828 0.48817314 -100.12207031 0.42724609 C-90.54266034 0.37409504 -80.96324829 0.32133608 -71.38383365 0.26903296 C-66.31943781 0.24136831 -61.25504315 0.21351752 -56.19065094 0.18519592 C-51.40710958 0.15845116 -46.62356558 0.13223741 -41.84001923 0.10640144 C-40.10040686 0.09691754 -38.36079548 0.08725267 -36.6211853 0.07737541 C-24.41393177 0.00821425 -12.20746979 -0.00795666 0 0 Z " fill="#4793FE" transform="translate(460,187)"/>
<path d="M0 0 C67.32 0.33 134.64 0.66 204 1 C204 10.9 204 20.8 204 31 C136.68 31 69.36 31 0 31 C0 20.77 0 10.54 0 0 Z " fill="#49CFFF" transform="translate(52,187)"/>
<path d="M0 0 C67.32 0 134.64 0 204 0 C204 9.9 204 19.8 204 30 C136.68 30 69.36 30 0 30 C0 20.1 0 10.2 0 0 Z " fill="#4793FF" transform="translate(256,292)"/>
<path d="M0 0 C67.32 0 134.64 0 204 0 C204 9.9 204 19.8 204 30 C136.68 30 69.36 30 0 30 C0 20.1 0 10.2 0 0 Z " fill="#4AD0FF" transform="translate(52,292)"/>
<path d="M0 0 C29.37 0 58.74 0 89 0 C89 22.11 89 44.22 89 67 C67.07830743 67.04010881 67.07830743 67.04010881 57.76757812 67.04882812 C51.40274222 67.0548168 45.03792064 67.06191775 38.6730957 67.07543945 C33.54436015 67.08626755 28.41563994 67.09227667 23.28689384 67.09487724 C21.32558386 67.09673163 19.36427476 67.10035251 17.40297127 67.10573006 C14.66584553 67.11293946 11.92878403 67.11399099 9.19165039 67.11352539 C7.96274582 67.1189183 7.96274582 67.1189183 6.70901489 67.12442017 C1.11405216 67.11405216 1.11405216 67.11405216 0 66 C-0.09413687 63.94443339 -0.11742998 61.88559819 -0.11352539 59.82788086 C-0.11364593 59.17355607 -0.11376646 58.51923128 -0.11389065 57.84507847 C-0.11314179 55.71829948 -0.10551481 53.59160715 -0.09765625 51.46484375 C-0.09664917 50.16840942 -0.09564209 48.8719751 -0.09460449 47.53625488 C-0.08935257 42.66999432 -0.07539147 37.80374632 -0.0625 32.9375 C-0.041875 22.068125 -0.02125 11.19875 0 0 Z " fill="#49D0FF" transform="translate(167,0)"/>
</svg>
